<svg width="10" height="11" viewBox="0 0 10 11" fill="none" xmlns="http://www.w3.org/2000/svg">
<path d="M5.5 6.0168H4.5V2.89075H5.5V6.0168ZM5.5 8.10083H4.5V7.05881H5.5V8.10083ZM5 0.285706C4.34339 0.285706 3.69321 0.420468 3.08658 0.6823C2.47995 0.944131 1.92876 1.3279 1.46447 1.8117C0.526784 2.78878 0 4.11399 0 5.49579C0 6.87759 0.526784 8.20279 1.46447 9.17987C1.92876 9.66367 2.47995 10.0474 3.08658 10.3093C3.69321 10.5711 4.34339 10.7059 5 10.7059C6.32608 10.7059 7.59785 10.157 8.53553 9.17987C9.47322 8.20279 10 6.87759 10 5.49579C10 4.81159 9.87067 4.13409 9.6194 3.50198C9.36812 2.86986 8.99983 2.2955 8.53553 1.8117C8.07124 1.3279 7.52005 0.944131 6.91342 0.6823C6.30679 0.420468 5.65661 0.285706 5 0.285706Z" fill="black"/>
</svg>
