<svg width="24" height="24" viewBox="0 0 24 24" fill="none" xmlns="http://www.w3.org/2000/svg">
<path d="M7 1C5.895 1 5 1.895 5 3V21C5 22.105 5.895 23 7 23H17C18.105 23 19 22.105 19 21V3C19 1.895 18.105 1 17 1H7ZM8 3H16C16.552 3 17 3.448 17 4V12C17 12.552 16.552 13 16 13H8C7.448 13 7 12.552 7 12V4C7 3.448 7.448 3 8 3ZM10 5C9.448 5 9 5.448 9 6C9 6.552 9.448 7 10 7H14C14.552 7 15 6.552 15 6C15 5.448 14.552 5 14 5H10ZM10 9C9.448 9 9 9.448 9 10C9 10.552 9.448 11 10 11H14C14.552 11 15 10.552 15 10C15 9.448 14.552 9 14 9H10ZM12 16.5C12.828 16.5 13.5 17.172 13.5 18C13.5 18.828 12.828 19.5 12 19.5C11.172 19.5 10.5 18.828 10.5 18C10.5 17.172 11.172 16.5 12 16.5Z" fill="white"/>
</svg>
