<svg width="24" height="24" viewBox="0 0 24 24" fill="none" xmlns="http://www.w3.org/2000/svg">
<path d="M11.3086 0C11.0158 0 10.7636 0.212362 10.7156 0.501563L10.3758 2.54766C9.79168 2.64806 9.22701 2.80329 8.68359 3.00469L7.36172 1.40156C7.17572 1.17476 6.85206 1.11568 6.59766 1.26328L5.40234 1.95469C5.14794 2.10109 5.03664 2.40999 5.13984 2.68359L5.86641 4.62422C5.41589 4.99968 4.99968 5.41589 4.62422 5.86641L2.68359 5.13984C2.40999 5.03664 2.10109 5.14794 1.95469 5.40234L1.26328 6.59766C1.11568 6.85206 1.17476 7.17572 1.40156 7.36172L3.00469 8.68359C2.80329 9.22701 2.64806 9.79168 2.54766 10.3758L0.501563 10.7156C0.212362 10.7648 0 11.0146 0 11.3086V12.6914C0 12.9842 0.212362 13.2364 0.501563 13.2844L2.54766 13.6242C2.64806 14.2083 2.80329 14.773 3.00469 15.3164L1.40156 16.6383C1.17476 16.8243 1.11688 17.1479 1.26328 17.4023L1.95469 18.5977C2.10109 18.8521 2.40999 18.9634 2.68359 18.8602L4.62422 18.1336C4.99968 18.5841 5.41589 19.0003 5.86641 19.3758L5.13984 21.3164C5.03664 21.5912 5.14914 21.8989 5.40234 22.0453L6.59766 22.7367C6.85206 22.8831 7.17572 22.824 7.36172 22.5984L8.68125 20.9953C9.2253 21.1971 9.79095 21.3518 10.3758 21.4523L10.7156 23.4984C10.7648 23.7876 11.0146 24 11.3086 24H12.6914C12.9842 24 13.2364 23.7876 13.2844 23.4984L13.6242 21.4523C14.2083 21.3519 14.773 21.1967 15.3164 20.9953L16.6383 22.5984C16.8243 22.8252 17.1479 22.8831 17.4023 22.7367L18.5977 22.0453C18.8521 21.8989 18.9634 21.59 18.8602 21.3164L18.1336 19.3758C18.5841 19.0003 19.0003 18.5841 19.3758 18.1336L21.3164 18.8602C21.5912 18.9634 21.8989 18.8509 22.0453 18.5977L22.7367 17.4023C22.8831 17.1479 22.824 16.8243 22.5984 16.6383L20.9953 15.3188C21.1971 14.7747 21.3518 14.2091 21.4523 13.6242L23.4984 13.2844C23.7876 13.2352 24 12.9854 24 12.6914V11.3086C24 11.0158 23.7876 10.7636 23.4984 10.7156L21.4523 10.3758C21.3519 9.79168 21.1967 9.22701 20.9953 8.68359L22.5984 7.36172C22.8252 7.17572 22.8831 6.85206 22.7367 6.59766L22.0453 5.40234C21.8989 5.14794 21.59 5.03664 21.3164 5.13984L19.3758 5.86641C19.0003 5.41589 18.5841 4.99968 18.1336 4.62422L18.8602 2.68359C18.9634 2.40879 18.8509 2.10109 18.5977 1.95469L17.4023 1.26328C17.1479 1.11688 16.8243 1.17596 16.6383 1.40156L15.3188 3.00469C14.7747 2.80292 14.2091 2.64819 13.6242 2.54766L13.2844 0.501563C13.2352 0.212362 12.9854 0 12.6914 0H11.3086ZM10.8 4.90781V8.625C9.4112 9.12583 8.4 10.4482 8.4 12C8.4 12.2243 8.42551 12.4428 8.46563 12.6563L5.25469 14.5102C4.96539 13.7284 4.8 12.8852 4.8 12C4.8 8.41937 7.38643 5.47656 10.8 4.90781ZM13.2 4.90781C16.6136 5.47656 19.2 8.41937 19.2 12C19.2 12.8855 19.0324 13.7282 18.743 14.5102L15.5344 12.6563C15.5745 12.4428 15.6 12.2243 15.6 12C15.6 10.4482 14.5888 9.12583 13.2 8.625V4.90781ZM12 10.8C12.677 10.8 13.2 11.323 13.2 12C13.2 12.677 12.677 13.2 12 13.2C11.323 13.2 10.8 12.677 10.8 12C10.8 11.323 11.323 10.8 12 10.8ZM9.68203 14.7234C10.3118 15.2612 11.1156 15.6 12 15.6C12.8844 15.6 13.6882 15.2612 14.318 14.7234L17.5547 16.5914C16.2365 18.1872 14.2424 19.2 12 19.2C9.75765 19.2 7.76354 18.1872 6.44531 16.5914L9.68203 14.7234Z" fill="white"/>
</svg>
