<svg width="24" height="24" viewBox="0 0 24 24" fill="none" xmlns="http://www.w3.org/2000/svg">
<path d="M17.5 12C17.1022 12 16.7206 11.842 16.4393 11.5607C16.158 11.2794 16 10.8978 16 10.5C16 10.1022 16.158 9.72064 16.4393 9.43934C16.7206 9.15804 17.1022 9 17.5 9C17.8978 9 18.2794 9.15804 18.5607 9.43934C18.842 9.72064 19 10.1022 19 10.5C19 10.8978 18.842 11.2794 18.5607 11.5607C18.2794 11.842 17.8978 12 17.5 12ZM14.5 8C14.1022 8 13.7206 7.84196 13.4393 7.56066C13.158 7.27936 13 6.89782 13 6.5C13 6.10218 13.158 5.72064 13.4393 5.43934C13.7206 5.15804 14.1022 5 14.5 5C14.8978 5 15.2794 5.15804 15.5607 5.43934C15.842 5.72064 16 6.10218 16 6.5C16 6.89782 15.842 7.27936 15.5607 7.56066C15.2794 7.84196 14.8978 8 14.5 8ZM9.5 8C9.10218 8 8.72064 7.84196 8.43934 7.56066C8.15804 7.27936 8 6.89782 8 6.5C8 6.10218 8.15804 5.72064 8.43934 5.43934C8.72064 5.15804 9.10218 5 9.5 5C9.89782 5 10.2794 5.15804 10.5607 5.43934C10.842 5.72064 11 6.10218 11 6.5C11 6.89782 10.842 7.27936 10.5607 7.56066C10.2794 7.84196 9.89782 8 9.5 8ZM6.5 12C6.10218 12 5.72064 11.842 5.43934 11.5607C5.15804 11.2794 5 10.8978 5 10.5C5 10.1022 5.15804 9.72064 5.43934 9.43934C5.72064 9.15804 6.10218 9 6.5 9C6.89782 9 7.27936 9.15804 7.56066 9.43934C7.84196 9.72064 8 10.1022 8 10.5C8 10.8978 7.84196 11.2794 7.56066 11.5607C7.27936 11.842 6.89782 12 6.5 12ZM12 3C9.61305 3 7.32387 3.94821 5.63604 5.63604C3.94821 7.32387 3 9.61305 3 12C3 14.3869 3.94821 16.6761 5.63604 18.364C7.32387 20.0518 9.61305 21 12 21C12.3978 21 12.7794 20.842 13.0607 20.5607C13.342 20.2794 13.5 19.8978 13.5 19.5C13.5 19.11 13.35 18.76 13.11 18.5C12.88 18.23 12.73 17.88 12.73 17.5C12.73 17.1022 12.888 16.7206 13.1693 16.4393C13.4506 16.158 13.8322 16 14.23 16H16C17.3261 16 18.5979 15.4732 19.5355 14.5355C20.4732 13.5979 21 12.3261 21 11C21 6.58 16.97 3 12 3Z" fill="white"/>
</svg>
