<svg width="24" height="24" viewBox="0 0 24 24" fill="none" xmlns="http://www.w3.org/2000/svg">
<path d="M15 3C11.691 3 9.00003 5.691 9.00003 9C9.00003 9.518 9.07097 10.0359 9.21097 10.5469L4.6348 15.123C3.12948 15.5138 2.00003 16.879 2.00003 18.5C2.00003 20.4212 3.57888 22 5.50003 22C7.12105 22 8.48621 20.8706 8.87698 19.3652L13.4532 14.7891C13.9642 14.9291 14.482 15 15 15C18.309 15 21 12.309 21 9C21 8.266 20.8572 7.53141 20.5762 6.81641L20.418 6.41016L18.4141 8.41406C18.0241 8.80506 17.512 9 17 9C16.488 9 15.976 8.80506 15.586 8.41406C14.805 7.63306 14.805 6.36694 15.586 5.58594L17.5899 3.58203L17.1836 3.42383C16.4686 3.14283 15.734 3 15 3ZM5.50003 17C6.3403 17 7.00003 17.6597 7.00003 18.5C7.00003 19.3403 6.3403 20 5.50003 20C4.65976 20 4.00003 19.3403 4.00003 18.5C4.00003 17.6597 4.65976 17 5.50003 17Z" fill="white"/>
</svg>
